<svg width="250" height="186" viewBox="0 0 250 186" fill="none" xmlns="http://www.w3.org/2000/svg">
<path d="M26.9467 148.52C26.9467 145.873 26.7187 143.39 26.264 141.073C25.8093 138.758 25.1147 136.752 24.184 135.054C23.2507 133.36 22.1027 132.014 20.7387 131.021C19.3733 130.029 17.8053 129.533 16.0307 129.533C14.1667 129.533 12.54 130.029 11.1533 131.021C9.76533 132.014 8.61733 133.36 7.708 135.054C6.79867 136.752 6.116 138.758 5.66133 141.073C5.20667 143.39 4.97867 145.873 4.97867 148.52C4.97867 151.166 5.20667 153.649 5.66133 155.966C6.116 158.282 6.79867 160.309 7.708 162.048C8.61733 163.784 9.76533 165.149 11.1533 166.141C12.54 167.134 14.1667 167.63 16.0307 167.63C17.8493 167.63 19.4427 167.134 20.8067 166.141C22.1707 165.149 23.308 163.784 24.2173 162.048C25.1267 160.309 25.8093 158.282 26.264 155.966C26.7187 153.649 26.9467 151.166 26.9467 148.52ZM31.9267 148.52C31.9267 151.953 31.5613 155.086 30.8347 157.92C30.1067 160.754 29.0613 163.185 27.696 165.212C26.3333 167.237 24.672 168.81 22.7173 169.928C20.76 171.044 18.532 171.602 16.0307 171.602C13.5293 171.602 11.2893 171.044 9.31067 169.928C7.33333 168.81 5.64933 167.237 4.26266 165.212C2.87466 163.185 1.81733 160.754 1.09067 157.92C0.362665 155.086 0 151.953 0 148.52C0 145.128 0.350666 142.016 1.05733 139.181C1.76133 136.348 2.796 133.928 4.16133 131.922C5.52533 129.916 7.196 128.354 9.17467 127.237C11.1533 126.12 13.4387 125.561 16.0307 125.561C18.532 125.561 20.76 126.12 22.7173 127.237C24.672 128.354 26.3333 129.916 27.696 131.922C29.0613 133.928 30.1067 136.348 30.8347 139.181C31.5613 142.016 31.9267 145.128 31.9267 148.52Z" fill="#58595B"/>
<path d="M53.4148 126.43C52.7335 126.224 52.0735 126.12 51.4375 126.12C50.5255 126.12 49.7655 126.327 49.1508 126.739C48.5375 127.154 48.0481 127.692 47.6841 128.354C47.3201 129.015 47.0708 129.771 46.9348 130.618C46.7975 131.466 46.7295 132.346 46.7295 133.255V139.771H52.4601V143.122H46.7295V170.547H42.2268V143.122H37.6561V139.771H42.2268V133.255C42.2268 130.112 42.9308 127.558 44.3401 125.591C45.7481 123.627 47.9548 122.644 50.9588 122.644C52.0041 122.644 52.9375 122.768 53.7561 123.016L53.4148 126.43Z" fill="#58595B"/>
<path d="M74.5628 139.771H79.0655V170.547H74.5628V139.771ZM79.8842 130.339C79.8842 131.208 79.5775 131.922 78.9642 132.479C78.3495 133.038 77.6562 133.318 76.8829 133.318C76.0189 133.318 75.3029 133.038 74.7335 132.479C74.1655 131.922 73.8815 131.208 73.8815 130.339C73.8815 129.512 74.1655 128.81 74.7335 128.23C75.3029 127.651 76.0189 127.36 76.8829 127.36C77.7015 127.36 78.4055 127.651 78.9975 128.23C79.5882 128.81 79.8842 129.512 79.8842 130.339ZM69.9922 126.43C69.3109 126.224 68.6509 126.12 68.0149 126.12C67.1042 126.12 66.3429 126.327 65.7282 126.74C65.1149 127.154 64.6255 127.692 64.2615 128.355C63.8975 129.016 63.6482 129.771 63.5122 130.618C63.3749 131.466 63.3068 132.347 63.3068 133.255V139.771H69.0375V143.122H63.3068V170.547H58.8042V143.122H54.2335V139.771H58.8042V133.255C58.8042 130.112 59.5082 127.558 60.9175 125.591C62.3255 123.628 64.5322 122.644 67.5362 122.644C68.5828 122.644 69.5148 122.768 70.3335 123.018L69.9922 126.43Z" fill="#58595B"/>
<path d="M100.486 171.539C98.5751 171.539 96.8924 171.135 95.4378 170.33C93.9818 169.523 92.7658 168.406 91.7884 166.979C90.8098 165.553 90.0698 163.837 89.5711 161.829C89.0698 159.823 88.8204 157.599 88.8204 155.159C88.8204 152.719 89.0698 150.495 89.5711 148.489C90.0698 146.482 90.8204 144.755 91.8218 143.307C92.8218 141.859 94.0498 140.742 95.5058 139.957C96.9604 139.173 98.6444 138.778 100.554 138.778C102.282 138.778 103.76 139.067 104.988 139.646C106.216 140.227 107.194 140.909 107.922 141.694L105.535 144.673C104.988 143.969 104.306 143.411 103.487 142.998C102.67 142.583 101.714 142.377 100.623 142.377C99.3951 142.377 98.3378 142.698 97.4498 143.339C96.5631 143.979 95.8231 144.87 95.2338 146.007C94.6418 147.145 94.1978 148.489 93.9031 150.039C93.6058 151.591 93.4591 153.297 93.4591 155.159C93.4591 156.979 93.6058 158.655 93.9031 160.185C94.1978 161.717 94.6418 163.039 95.2338 164.157C95.8231 165.274 96.5858 166.141 97.5178 166.762C98.4498 167.383 99.5538 167.693 100.827 167.693C101.963 167.693 102.952 167.475 103.795 167.042C104.635 166.607 105.352 165.998 105.943 165.211L107.99 168.375C106.171 170.485 103.668 171.539 100.486 171.539Z" fill="#58595B"/>
<path d="M131.186 152.615C131.186 149.513 130.659 147.021 129.608 145.139C128.556 143.255 126.911 142.315 124.671 142.315C123.346 142.315 122.239 142.677 121.347 143.401C120.456 144.125 119.724 145.013 119.154 146.068C118.582 147.123 118.171 148.251 117.919 149.451C117.667 150.651 117.542 151.705 117.542 152.615H131.186ZM117.474 156.028C117.474 157.724 117.632 159.285 117.954 160.712C118.272 162.14 118.742 163.38 119.358 164.435C119.975 165.489 120.752 166.317 121.688 166.917C122.626 167.517 123.735 167.816 125.015 167.816C126.659 167.816 127.984 167.363 128.991 166.452C129.996 165.541 130.772 164.445 131.322 163.163L134.734 164.963C133.914 166.824 132.698 168.385 131.083 169.647C129.468 170.909 127.41 171.539 124.91 171.539C121.134 171.539 118.2 170.092 116.108 167.196C114.016 164.303 112.971 160.309 112.971 155.221C112.971 152.823 113.242 150.609 113.786 148.581C114.33 146.555 115.112 144.817 116.134 143.369C117.154 141.921 118.4 140.795 119.874 139.987C121.347 139.181 122.991 138.777 124.806 138.777C126.8 138.777 128.49 139.172 129.872 139.956C131.256 140.743 132.379 141.817 133.24 143.183C134.102 144.548 134.723 146.141 135.11 147.961C135.495 149.781 135.688 151.725 135.688 153.795V156.028H117.474Z" fill="#58595B"/>
<path d="M166.249 170.547L150.149 148.023H150.081V170.547H145.375V126.616H150.081V146.348H150.149L165.295 126.616H170.82L154.584 146.907L171.98 170.547H166.249Z" fill="#58595B"/>
<path d="M193.333 152.615C193.333 149.513 192.806 147.021 191.755 145.139C190.703 143.255 189.058 142.315 186.818 142.315C185.493 142.315 184.386 142.677 183.494 143.401C182.603 144.125 181.871 145.013 181.301 146.068C180.729 147.123 180.318 148.251 180.066 149.451C179.814 150.651 179.689 151.705 179.689 152.615H193.333ZM179.621 156.028C179.621 157.724 179.779 159.285 180.101 160.712C180.419 162.14 180.889 163.38 181.505 164.435C182.122 165.489 182.899 166.317 183.835 166.917C184.773 167.517 185.882 167.816 187.162 167.816C188.806 167.816 190.131 167.363 191.138 166.452C192.143 165.541 192.919 164.445 193.469 163.163L196.881 164.963C196.061 166.824 194.845 168.385 193.23 169.647C191.615 170.909 189.557 171.539 187.057 171.539C183.281 171.539 180.347 170.092 178.255 167.196C176.163 164.303 175.118 160.309 175.118 155.221C175.118 152.823 175.389 150.609 175.933 148.581C176.477 146.555 177.259 144.817 178.281 143.369C179.301 141.921 180.547 140.795 182.021 139.987C183.494 139.181 185.138 138.777 186.953 138.777C188.947 138.777 190.637 139.172 192.019 139.956C193.403 140.743 194.526 141.817 195.387 143.183C196.249 144.548 196.87 146.141 197.257 147.961C197.642 149.781 197.835 151.725 197.835 153.795V156.028H179.621Z" fill="#58595B"/>
<path d="M215.776 177.125C215.412 178.448 214.992 179.625 214.513 180.656C214.036 181.689 213.456 182.549 212.775 183.242C212.092 183.932 211.307 184.472 210.42 184.86C209.533 185.245 208.476 185.438 207.248 185.438C206.611 185.438 205.975 185.388 205.339 185.286C204.7 185.184 204.179 185.073 203.769 184.95L204.384 181.344C204.7 181.426 205.088 181.508 205.543 181.592C205.997 181.674 206.452 181.716 206.908 181.716C208.225 181.716 209.215 181.302 209.875 180.474C210.533 179.646 211.069 178.51 211.477 177.062L212.979 171.726L203.155 139.833H207.931L215.231 165.83H215.367L221.848 139.833H226.417L215.776 177.125Z" fill="#58595B"/>
<path d="M246.953 145.107C246.361 144.198 245.599 143.463 244.667 142.904C243.734 142.347 242.609 142.067 241.29 142.067C239.834 142.067 238.641 142.552 237.709 143.524C236.777 144.498 236.31 145.768 236.31 147.342C236.31 148.995 236.765 150.195 237.675 150.94C238.585 151.684 239.949 152.367 241.767 152.987C242.677 153.318 243.587 153.722 244.497 154.196C245.406 154.674 246.213 155.263 246.919 155.967C247.623 156.67 248.203 157.507 248.658 158.479C249.113 159.451 249.341 160.62 249.341 161.984C249.341 165.004 248.442 167.352 246.646 169.026C244.849 170.702 242.518 171.539 239.653 171.539C237.743 171.539 235.991 171.135 234.399 170.33C232.807 169.523 231.489 168.438 230.443 167.074L233.173 164.404C233.945 165.48 234.866 166.359 235.935 167.042C237.003 167.724 238.265 168.066 239.722 168.066C241.313 168.066 242.597 167.538 243.575 166.482C244.554 165.427 245.042 164.031 245.042 162.295C245.042 161.302 244.861 160.464 244.497 159.782C244.133 159.099 243.654 158.531 243.063 158.076C242.473 157.62 241.802 157.228 241.051 156.896C240.301 156.566 239.517 156.255 238.698 155.967C237.834 155.678 237.003 155.324 236.207 154.911C235.411 154.498 234.695 153.96 234.059 153.298C233.422 152.635 232.91 151.839 232.525 150.91C232.138 149.976 231.945 148.852 231.945 147.526C231.945 146.246 232.183 145.066 232.661 143.99C233.138 142.914 233.809 141.995 234.674 141.23C235.537 140.464 236.526 139.863 237.641 139.43C238.755 138.995 239.971 138.778 241.29 138.778C243.201 138.778 244.849 139.12 246.237 139.802C247.623 140.484 248.749 141.363 249.614 142.439L246.953 145.107Z" fill="#58595B"/>
<path d="M76.2423 17.728C76.193 61.428 84.601 78.1587 84.6876 78.3267L84.793 78.5507C87.4516 84.8213 93.721 94.6827 108.49 106.045C115.258 111.252 121.425 114.917 124.089 116.424C145.477 104.713 159.438 85.7053 159.58 85.5107C171.716 68.836 172.089 29.0053 171.942 17.8907C148.137 17.6293 129.532 9.52933 124.17 6.93466C109.594 14.9867 84.741 17.192 76.2423 17.728ZM124.066 123.293L122.66 122.555C122.322 122.377 114.266 118.123 104.882 110.915C92.1836 101.161 83.5636 91.1027 79.2596 81.0173C78.333 79.1813 69.7676 60.912 70.1996 14.824L70.2263 11.932L73.117 11.8253C73.4516 11.812 106.854 10.472 122.486 0.907996L123.97 -3.67443e-06L125.502 0.823991C125.706 0.933325 146.372 11.8387 173.118 11.8387C173.693 11.8387 174.27 11.8333 174.854 11.8227L177.82 11.7707L177.934 14.7333C178.018 16.8987 179.818 68.0013 164.482 89.0733C163.862 89.928 148.964 110.251 125.473 122.556L124.066 123.293Z" fill="#367C8E"/>
<path d="M78.9297 20.1343C78.5351 62.2423 86.7137 77.6969 86.7137 77.6969C95.4497 98.3023 124.034 113.308 124.034 113.308V10.0543C109.39 19.0143 78.9297 20.1343 78.9297 20.1343Z" fill="#367C8E"/>
<path d="M169.138 20.1343C143.606 20.5809 124.034 10.0543 124.034 10.0543V113.308C144.554 102.558 157.717 84.4009 157.717 84.4009C170.93 66.2449 169.138 20.1343 169.138 20.1343Z" fill="#70B8D1"/>
<path fill-rule="evenodd" clip-rule="evenodd" d="M133.139 78.8829L126.518 56.5136C128.746 55.5523 130.306 53.3363 130.306 50.7549C130.306 47.2896 127.498 44.4816 124.034 44.4816C120.569 44.4816 117.759 47.2896 117.759 50.7549C117.759 53.3363 119.322 55.5523 121.55 56.5136L114.927 78.8829H133.139Z" fill="white"/>
</svg>
