<svg width="220" height="220" viewBox="0 0 220 220" fill="none" xmlns="http://www.w3.org/2000/svg">
<circle cx="110" cy="110" r="110" fill="white"/>
<path d="M62.0585 65.728C62.0091 109.428 70.4171 126.159 70.5038 126.327L70.6091 126.551C73.2678 132.821 79.5371 142.683 94.3065 154.045C101.074 159.252 107.241 162.917 109.905 164.424C131.293 152.713 145.254 133.705 145.396 133.511C157.532 116.836 157.905 77.0053 157.758 65.8907C133.953 65.6293 115.348 57.5293 109.986 54.9347C95.4105 62.9867 70.5571 65.192 62.0585 65.728ZM109.882 171.293L108.476 170.555C108.138 170.377 100.082 166.123 90.6985 158.915C77.9998 149.161 69.3798 139.103 65.0758 129.017C64.1491 127.181 55.5838 108.912 56.0158 62.824L56.0425 59.932L58.9331 59.8253C59.2678 59.812 92.6705 58.472 108.302 48.908L109.786 48L111.318 48.824C111.522 48.9333 132.188 59.8387 158.934 59.8387C159.509 59.8387 160.086 59.8333 160.67 59.8227L163.636 59.7707L163.75 62.7333C163.834 64.8987 165.634 116.001 150.298 137.073C149.678 137.928 134.78 158.251 111.289 170.556L109.882 171.293Z" fill="#367C8E"/>
<path d="M64.7459 68.1343C64.3512 110.242 72.5299 125.697 72.5299 125.697C81.2659 146.302 109.85 161.308 109.85 161.308V58.0543C95.2059 67.0143 64.7459 68.1343 64.7459 68.1343Z" fill="#367C8E"/>
<path d="M154.954 68.1343C129.422 68.5809 109.85 58.0543 109.85 58.0543V161.308C130.37 150.558 143.533 132.401 143.533 132.401C156.746 114.245 154.954 68.1343 154.954 68.1343Z" fill="#70B8D1"/>
<path fill-rule="evenodd" clip-rule="evenodd" d="M118.956 126.883L112.334 104.514C114.562 103.552 116.122 101.336 116.122 98.7549C116.122 95.2896 113.314 92.4816 109.85 92.4816C106.385 92.4816 103.576 95.2896 103.576 98.7549C103.576 101.336 105.138 103.552 107.366 104.514L100.744 126.883H118.956Z" fill="white"/>
</svg>
