<svg width="187" height="139" viewBox="0 0 187 139" fill="none" xmlns="http://www.w3.org/2000/svg">
<path d="M20.1267 110.922C20.1267 108.946 19.9547 107.091 19.616 105.36C19.276 103.631 18.76 102.132 18.0627 100.866C17.3667 99.6003 16.508 98.5949 15.4893 97.8523C14.4707 97.1123 13.2987 96.7416 11.9747 96.7416C10.5813 96.7416 9.368 97.1123 8.33067 97.8523C7.29467 98.5949 6.43733 99.6003 5.75867 100.866C5.07867 102.132 4.56933 103.631 4.22933 105.36C3.88933 107.091 3.72 108.946 3.72 110.922C3.72 112.898 3.88933 114.752 4.22933 116.483C4.56933 118.214 5.07867 119.727 5.75867 121.024C6.43733 122.322 7.29467 123.34 8.33067 124.082C9.368 124.824 10.5813 125.194 11.9747 125.194C13.332 125.194 14.5213 124.824 15.54 124.082C16.5587 123.34 17.408 122.322 18.088 121.024C18.7667 119.727 19.276 118.214 19.616 116.483C19.9547 114.752 20.1267 112.898 20.1267 110.922ZM23.8453 110.922C23.8453 113.486 23.572 115.826 23.0307 117.943C22.4867 120.059 21.7067 121.875 20.6867 123.388C19.6667 124.9 18.428 126.075 16.968 126.91C15.5053 127.743 13.8427 128.16 11.9747 128.16C10.1053 128.16 8.43333 127.743 6.95467 126.91C5.47867 126.075 4.22 124.9 3.18533 123.388C2.14933 121.875 1.35867 120.059 0.817333 117.943C0.272 115.826 0 113.486 0 110.922C0 108.39 0.264 106.064 0.789333 103.948C1.31733 101.832 2.08933 100.023 3.108 98.5256C4.128 97.0269 5.376 95.8616 6.85467 95.0269C8.33067 94.1923 10.0387 93.7763 11.9747 93.7763C13.8427 93.7763 15.5053 94.1923 16.968 95.0269C18.428 95.8616 19.6667 97.0269 20.6867 98.5256C21.7067 100.023 22.4867 101.832 23.0307 103.948C23.572 106.064 23.8453 108.39 23.8453 110.922Z" fill="white"/>
<path d="M39.8935 94.4243C39.3841 94.2709 38.8908 94.1923 38.4161 94.1923C37.7361 94.1923 37.1668 94.3469 36.7081 94.6563C36.2521 94.9643 35.8855 95.3669 35.6135 95.8616C35.3415 96.3549 35.1548 96.9189 35.0535 97.5523C34.9521 98.1856 34.9001 98.8429 34.9001 99.5216V104.388H39.1801V106.891H34.9001V127.372H31.5375V106.891H28.1241V104.388H31.5375V99.5216C31.5375 97.1749 32.0641 95.2669 33.1161 93.7976C34.1668 92.3323 35.8148 91.5976 38.0601 91.5976C38.8401 91.5976 39.5361 91.6896 40.1481 91.8749L39.8935 94.4243Z" fill="white"/>
<path d="M55.6896 104.387H59.0509V127.371H55.6896V104.387ZM59.6616 97.3432C59.6616 97.9939 59.4336 98.5259 58.9749 98.9419C58.5163 99.3592 57.9976 99.5686 57.4216 99.5686C56.7763 99.5686 56.2416 99.3592 55.8149 98.9419C55.3909 98.5259 55.179 97.9939 55.179 97.3432C55.179 96.7259 55.3909 96.2019 55.8149 95.7686C56.2416 95.3352 56.7763 95.1192 57.4216 95.1192C58.031 95.1192 58.559 95.3352 59.0003 95.7686C59.4417 96.2019 59.6616 96.7259 59.6616 97.3432ZM52.275 94.4246C51.7657 94.2712 51.2723 94.1926 50.7976 94.1926C50.1176 94.1926 49.5483 94.3472 49.0896 94.6565C48.6336 94.9645 48.267 95.3672 47.995 95.8619C47.7216 96.3552 47.5363 96.9192 47.4336 97.5525C47.3336 98.1859 47.2817 98.8432 47.2817 99.5219V104.387H51.5616V106.89H47.2817V127.373H43.9189V106.89H40.5056V104.387H43.9189V99.5219C43.9189 97.1739 44.4456 95.2672 45.4976 93.7979C46.5483 92.3312 48.1963 91.5979 50.4417 91.5979C51.2217 91.5979 51.9176 91.6899 52.5296 91.8752L52.275 94.4246Z" fill="white"/>
<path d="M75.0484 128.113C73.6231 128.113 72.3644 127.812 71.2791 127.21C70.1911 126.608 69.2844 125.774 68.5524 124.708C67.8218 123.641 67.2711 122.361 66.8978 120.862C66.5218 119.364 66.3378 117.702 66.3378 115.88C66.3378 114.058 66.5218 112.397 66.8978 110.898C67.2711 109.4 67.8311 108.11 68.5778 107.029C69.3244 105.948 70.2431 105.113 71.3298 104.526C72.4164 103.941 73.6738 103.645 75.0991 103.645C76.3898 103.645 77.4951 103.864 78.4098 104.294C79.3284 104.728 80.0578 105.238 80.6031 105.824L78.8191 108.048C78.4098 107.524 77.9018 107.106 77.2911 106.798C76.6804 106.488 75.9658 106.333 75.1511 106.333C74.2338 106.333 73.4431 106.574 72.7818 107.052C72.1191 107.53 71.5671 108.196 71.1258 109.045C70.6844 109.894 70.3538 110.898 70.1324 112.057C69.9098 113.216 69.8004 114.489 69.8004 115.88C69.8004 117.24 69.9098 118.49 70.1324 119.634C70.3538 120.777 70.6844 121.765 71.1258 122.6C71.5671 123.434 72.1364 124.082 72.8338 124.545C73.5271 125.01 74.3524 125.241 75.3018 125.241C76.1524 125.241 76.8911 125.08 77.5204 124.754C78.1484 124.429 78.6831 123.974 79.1258 123.388L80.6538 125.752C79.2951 127.326 77.4258 128.113 75.0484 128.113Z" fill="white"/>
<path d="M97.9768 113.98C97.9768 111.664 97.5821 109.802 96.7981 108.398C96.0115 106.991 94.7821 106.287 93.1115 106.287C92.1195 106.287 91.2941 106.559 90.6288 107.099C89.9621 107.639 89.4168 108.303 88.9901 109.091C88.5621 109.879 88.2555 110.72 88.0675 111.618C87.8808 112.514 87.7861 113.302 87.7861 113.98H97.9768ZM87.7341 116.528C87.7341 117.795 87.8541 118.962 88.0941 120.027C88.3328 121.094 88.6821 122.02 89.1435 122.808C89.6048 123.596 90.1835 124.215 90.8835 124.662C91.5835 125.11 92.4115 125.334 93.3675 125.334C94.5968 125.334 95.5848 124.995 96.3381 124.315C97.0875 123.635 97.6675 122.816 98.0781 121.858L100.625 123.202C100.013 124.592 99.1048 125.759 97.8995 126.7C96.6928 127.643 95.1568 128.114 93.2888 128.114C90.4688 128.114 88.2781 127.034 86.7155 124.87C85.1541 122.71 84.3728 119.727 84.3728 115.927C84.3728 114.135 84.5755 112.483 84.9808 110.967C85.3875 109.454 85.9715 108.158 86.7341 107.075C87.4968 105.995 88.4275 105.152 89.5275 104.55C90.6288 103.948 91.8555 103.646 93.2115 103.646C94.7008 103.646 95.9608 103.942 96.9955 104.526C98.0288 105.114 98.8675 105.916 99.5101 106.936C100.153 107.955 100.617 109.146 100.906 110.506C101.194 111.864 101.338 113.316 101.338 114.862V116.528H87.7341Z" fill="white"/>
<path d="M124.164 127.372L112.139 110.552H112.088V127.372H108.574V94.5641H112.088V109.299H112.139L123.451 94.5641H127.579L115.451 109.717L128.443 127.372H124.164Z" fill="white"/>
<path d="M144.391 113.98C144.391 111.664 143.996 109.802 143.212 108.398C142.427 106.991 141.198 106.287 139.526 106.287C138.535 106.287 137.708 106.559 137.043 107.099C136.376 107.639 135.831 108.303 135.404 109.091C134.978 109.879 134.671 110.72 134.482 111.618C134.295 112.514 134.2 113.302 134.2 113.98H144.391ZM134.15 116.528C134.15 117.795 134.268 118.962 134.508 120.027C134.747 121.094 135.096 122.02 135.558 122.808C136.019 123.596 136.598 124.215 137.299 124.662C137.998 125.11 138.826 125.334 139.782 125.334C141.011 125.334 141.999 124.995 142.752 124.315C143.503 123.635 144.083 122.816 144.492 121.858L147.04 123.202C146.427 124.592 145.52 125.759 144.314 126.7C143.108 127.643 141.572 128.114 139.703 128.114C136.883 128.114 134.694 127.034 133.131 124.87C131.568 122.71 130.787 119.727 130.787 115.927C130.787 114.135 130.99 112.483 131.396 110.967C131.803 109.454 132.386 108.158 133.148 107.075C133.911 105.995 134.843 105.152 135.943 104.55C137.043 103.948 138.271 103.646 139.627 103.646C141.115 103.646 142.376 103.942 143.41 104.526C144.443 105.114 145.282 105.916 145.924 106.936C146.568 107.955 147.032 109.146 147.32 110.506C147.608 111.864 147.752 113.316 147.752 114.862V116.528H134.15Z" fill="white"/>
<path d="M161.153 132.285C160.881 133.273 160.567 134.152 160.21 134.924C159.853 135.694 159.419 136.337 158.91 136.854C158.402 137.369 157.815 137.772 157.153 138.062C156.491 138.35 155.701 138.494 154.783 138.494C154.306 138.494 153.833 138.457 153.357 138.381C152.881 138.305 152.49 138.221 152.185 138.13L152.643 135.436C152.881 135.497 153.17 135.558 153.51 135.621C153.849 135.684 154.187 135.714 154.529 135.714C155.514 135.714 156.251 135.405 156.745 134.786C157.237 134.168 157.635 133.32 157.942 132.24L159.065 128.254L151.726 104.434H155.293L160.743 123.85H160.847L165.686 104.434H169.099L161.153 132.285Z" fill="white"/>
<path d="M184.437 108.373C183.994 107.693 183.426 107.144 182.73 106.728C182.033 106.311 181.191 106.103 180.207 106.103C179.121 106.103 178.23 106.464 177.533 107.189C176.837 107.917 176.489 108.867 176.489 110.041C176.489 111.277 176.827 112.173 177.509 112.729C178.187 113.285 179.205 113.795 180.565 114.257C181.243 114.505 181.922 114.807 182.602 115.161C183.282 115.517 183.883 115.957 184.41 116.483C184.937 117.009 185.37 117.633 185.71 118.36C186.05 119.085 186.219 119.957 186.219 120.977C186.219 123.233 185.547 124.987 184.207 126.236C182.865 127.488 181.126 128.113 178.985 128.113C177.558 128.113 176.25 127.812 175.061 127.211C173.873 126.608 172.887 125.797 172.107 124.779L174.145 122.785C174.722 123.588 175.409 124.245 176.209 124.755C177.006 125.264 177.949 125.519 179.037 125.519C180.225 125.519 181.185 125.124 181.914 124.337C182.643 123.549 183.01 122.507 183.01 121.209C183.01 120.468 182.874 119.843 182.602 119.332C182.33 118.823 181.973 118.4 181.531 118.059C181.09 117.719 180.59 117.425 180.029 117.179C179.467 116.931 178.883 116.699 178.271 116.483C177.627 116.267 177.006 116.004 176.411 115.695C175.817 115.387 175.283 114.984 174.807 114.489C174.331 113.996 173.949 113.401 173.661 112.707C173.371 112.011 173.227 111.171 173.227 110.179C173.227 109.223 173.406 108.343 173.762 107.539C174.121 106.735 174.619 106.049 175.265 105.477C175.91 104.904 176.649 104.456 177.482 104.132C178.314 103.808 179.222 103.645 180.207 103.645C181.634 103.645 182.865 103.901 183.902 104.411C184.937 104.92 185.778 105.576 186.422 106.38L184.437 108.373Z" fill="white"/>
<path d="M56.9416 13.2413C56.907 45.8787 63.1843 58.3733 63.2483 58.4987L63.3283 58.6653C65.3136 63.3507 69.9963 70.7133 81.0256 79.2C86.0803 83.088 90.6883 85.8253 92.6763 86.952C108.648 78.2053 119.078 64.0107 119.182 63.864C128.246 51.4093 128.524 21.664 128.415 13.3627C110.636 13.168 96.7416 7.11867 92.7376 5.18134C81.851 11.1933 63.2896 12.8413 56.9416 13.2413ZM92.659 92.0813L91.6096 91.5293C91.3563 91.3987 85.3403 88.22 78.3323 82.8373C68.8483 75.5533 62.411 68.04 59.195 60.5093C58.503 59.136 52.1056 45.492 52.4283 11.072L52.4496 8.912L54.607 8.83334C54.859 8.82267 79.8043 7.82134 91.4776 0.678673L92.587 2.94534e-06L93.7323 0.61601C93.883 0.697344 109.316 8.84267 129.294 8.84267C129.723 8.84267 130.154 8.83868 130.59 8.83068L132.803 8.792L132.89 11.0053C132.952 12.6227 134.298 50.788 122.843 66.524C122.38 67.1627 111.252 82.3413 93.7096 91.5307L92.659 92.0813Z" fill="white"/>
<path d="M85.3662 57.5623L90.0848 41.6223C88.4982 40.9383 87.3848 39.3596 87.3848 37.5196C87.3848 35.1583 89.2208 33.245 91.5395 33.0823V8.51829C81.1048 14.9023 59.3995 15.701 59.3995 15.701C59.1168 45.705 64.9475 56.7183 64.9475 56.7183C71.1715 71.401 91.5395 82.0916 91.5395 82.0916V57.5623H85.3662Z" fill="white"/>
<path d="M125.938 15.7003C107.743 16.019 93.7979 8.51763 93.7979 8.51763V33.0883C95.9632 33.3976 97.6312 35.243 97.6312 37.495C97.6312 39.3336 96.5192 40.9136 94.9312 41.5976L99.6499 57.5376H93.7979V82.0923C108.418 74.4336 117.797 61.4963 117.797 61.4963C127.211 48.5576 125.938 15.7003 125.938 15.7003Z" fill="white"/>
</svg>
